<?xml version="1.0" encoding="UTF-8"?>
<!DOCTYPE svg PUBLIC "-//W3C//DTD SVG 1.1//EN" "http://www.w3.org/Graphics/SVG/1.1/DTD/svg11.dtd">
<!-- Creator: CorelDRAW -->
<svg xmlns="http://www.w3.org/2000/svg" xml:space="preserve" width="121.994mm" height="113.7mm" version="1.1" style="shape-rendering:geometricPrecision; text-rendering:geometricPrecision; image-rendering:optimizeQuality; fill-rule:evenodd; clip-rule:evenodd"
viewBox="0 0 3257.25 3035.79"
 xmlns:xlink="http://www.w3.org/1999/xlink"
 xmlns:xodm="http://www.corel.com/coreldraw/odm/2003">
 <defs>
  <style type="text/css">
   <![CDATA[
    .fil0 {fill:rgba(122, 156, 201, 0.15);fill-rule:nonzero}
   ]]>
  </style>
 </defs>
 <g id="Layer_x0020_1">
  <metadata id="CorelCorpID_0Corel-Layer"/>
  <g id="_1987836602080">
   <path class="fil0" d="M281.42 0l2694.41 0c77.46,0 147.83,31.64 198.81,82.61 50.97,50.97 82.61,121.34 82.61,198.81l0 1803.34c0,77.46 -31.64,147.83 -82.62,198.8 -50.97,50.97 -121.34,82.62 -198.8,82.62l-1372.06 0 -825.43 654.91c-29.26,23.26 -71.84,18.4 -95.11,-10.86 -9.91,-12.46 -14.71,-27.35 -14.7,-42.12l-0.13 0 0 -601.92 -386.98 0c-77.46,0 -147.83,-31.64 -198.81,-82.61 -50.97,-50.97 -82.61,-121.34 -82.61,-198.81l0 -1803.34c0,-77.46 31.64,-147.83 82.61,-198.81 50.97,-50.97 121.34,-82.61 198.81,-82.61zm2694.41 135.64l-2694.41 0c-40.02,0 -76.45,16.42 -102.9,42.88 -26.45,26.45 -42.88,62.89 -42.88,102.9l0 1803.34c0,40.02 16.42,76.45 42.88,102.9 26.45,26.45 62.89,42.88 102.9,42.88l454.8 0c37.45,0 67.82,30.36 67.82,67.82l0 529.53 730.97 -579.96c12.02,-10.81 27.91,-17.39 45.34,-17.39l1395.49 0c40.01,0 76.45,-16.43 102.9,-42.88 26.46,-26.45 42.88,-62.89 42.88,-102.9l0 -1803.34c0,-40.02 -16.42,-76.45 -42.88,-102.9 -26.45,-26.45 -62.89,-42.88 -102.9,-42.88z"/>
   <path class="fil0" d="M736.22 1049.03c-49.94,0 -90.42,-40.49 -90.42,-90.42 0,-49.94 40.49,-90.42 90.42,-90.42l1797.66 0c49.94,0 90.42,40.49 90.42,90.42 0,49.94 -40.49,90.42 -90.42,90.42l-1797.66 0z"/>
   <path class="fil0" d="M736.22 1495.86c-49.94,0 -90.42,-40.49 -90.42,-90.42 0,-49.94 40.49,-90.42 90.42,-90.42l898.83 0c49.94,0 90.42,40.49 90.42,90.42 0,49.94 -40.49,90.42 -90.42,90.42l-898.83 0z"/>
  </g>
 </g>
</svg>
