<?xml version="1.0" encoding="UTF-8"?>
<!DOCTYPE svg PUBLIC "-//W3C//DTD SVG 1.1//EN" "http://www.w3.org/Graphics/SVG/1.1/DTD/svg11.dtd">
<!-- Creator: CorelDRAW -->
<svg xmlns="http://www.w3.org/2000/svg" xml:space="preserve" width="65.5324mm" height="129.274mm" version="1.1" style="shape-rendering:geometricPrecision; text-rendering:geometricPrecision; image-rendering:optimizeQuality; fill-rule:evenodd; clip-rule:evenodd"
viewBox="0 0 364.14 718.34"
 xmlns:xlink="http://www.w3.org/1999/xlink"
 xmlns:xodm="http://www.corel.com/coreldraw/odm/2003">
 <defs>
  <style type="text/css">
   <![CDATA[
    .fil0 {fill:rgba(122, 156, 201, 0.15);fill-rule:nonzero}
   ]]>
  </style>
 </defs>
 <g id="Layer_x0020_1">
  <metadata id="CorelCorpID_0Corel-Layer"/>
  <g id="_1987840374176">
   <path class="fil0" d="M216.91 102.01c6.17,-6.17 14.27,-9.26 22.35,-9.26 8.09,0 16.18,3.09 22.35,9.26 6.17,6.17 9.26,14.26 9.26,22.35 0,8.09 -3.09,16.18 -9.26,22.35l-35.1 35.1 35.09 35.1c6.17,6.17 9.26,14.26 9.26,22.35 0,8.09 -3.09,16.18 -9.26,22.35 -6.17,6.17 -14.26,9.26 -22.35,9.26 -8.09,0 -16.18,-3.09 -22.35,-9.26l-35.09 -35.09 -35.1 35.09c-6.17,6.17 -14.26,9.26 -22.35,9.26 -8.09,0 -16.18,-3.09 -22.35,-9.26 -6.17,-6.17 -9.26,-14.27 -9.26,-22.35 0,-8.09 3.09,-16.18 9.26,-22.35l35.1 -35.09 -35.09 -35.1c-6.17,-6.17 -9.26,-14.27 -9.26,-22.35 0,-8.09 3.09,-16.18 9.26,-22.35 6.17,-6.17 14.27,-9.26 22.35,-9.26 8.09,0 16.18,3.09 22.35,9.26l35.09 35.09 35.1 -35.09zm22.35 14.26c-2.07,0 -4.14,0.79 -5.72,2.37l-43.41 43.41c-4.59,4.59 -12.04,4.59 -16.63,0l-43.41 -43.41c-1.58,-1.58 -3.65,-2.37 -5.72,-2.37 -2.07,0 -4.14,0.79 -5.72,2.37 -1.58,1.58 -2.37,3.65 -2.37,5.72 0,2.07 0.79,4.14 2.37,5.72l43.41 43.41c4.59,4.59 4.59,12.04 0,16.63l-43.41 43.41c-1.58,1.58 -2.37,3.65 -2.37,5.72 0,2.07 0.79,4.14 2.37,5.72 1.58,1.58 3.65,2.37 5.72,2.37 2.07,0 4.14,-0.79 5.72,-2.37l43.41 -43.41c4.59,-4.59 12.04,-4.59 16.63,0l43.41 43.41c1.58,1.58 3.65,2.37 5.72,2.37 2.07,0 4.14,-0.79 5.72,-2.37 1.58,-1.58 2.37,-3.65 2.37,-5.72 0,-2.07 -0.79,-4.14 -2.37,-5.72l-43.41 -43.41c-4.59,-4.59 -4.59,-12.04 0,-16.63l43.41 -43.41c1.58,-1.58 2.37,-3.65 2.37,-5.72 0,-2.07 -0.79,-4.14 -2.37,-5.72 -1.58,-1.58 -3.65,-2.37 -5.72,-2.37z"/>
   <path class="fil0" d="M308.13 271.52c-1.97,-3.91 -1.55,-8.41 0.72,-11.81 18.83,-30.03 26.32,-65.16 22.46,-99.27 -3.78,-33.47 -18.55,-65.97 -44.28,-91.7 -30.14,-30.14 -69.64,-45.21 -109.15,-45.21 -39.5,0 -79.01,15.07 -109.15,45.21 -30.14,30.14 -45.21,69.64 -45.21,109.15 0,39.5 15.07,79.01 45.21,109.15 25.68,25.68 58.15,40.42 91.6,44.21 34.14,3.87 69.28,-3.58 99.31,-22.33 3.4,-2.26 7.89,-2.68 11.79,-0.71l61.16 30.97c1.23,0.62 2.47,0.8 3.59,0.65 1.02,-0.14 1.89,-0.54 2.46,-1.1 0.56,-0.56 0.97,-1.43 1.1,-2.46 0.15,-1.12 -0.03,-2.36 -0.65,-3.59l-30.97 -61.16zm23.87 -4.79l28.05 55.39c2.88,5.69 3.68,11.68 2.95,17.19 -0.84,6.3 -3.67,12.01 -7.72,16.05 -4.05,4.05 -9.76,6.88 -16.05,7.72 -5.51,0.73 -11.5,-0.07 -17.19,-2.95l-55.4 -28.05c-33.4,19.22 -71.69,26.73 -108.87,22.51 -38.64,-4.38 -76.1,-21.35 -105.66,-50.92 -34.73,-34.73 -52.1,-80.26 -52.1,-125.78 0,-45.52 17.37,-91.05 52.1,-125.78 34.73,-34.73 80.26,-52.1 125.78,-52.1 45.52,0 91.05,17.37 125.78,52.1 29.62,29.62 46.62,67.1 50.99,105.76 4.2,37.19 -3.35,75.46 -22.65,108.86z"/>
   <path class="fil0" d="M109.31 590.73l56.21 0c6.5,0 11.76,5.27 11.76,11.76 0,6.5 -5.27,11.76 -11.76,11.76l-14.2 0 -9.2 64.26 -0.04 0.58 -0.01 0.97c0,4.07 1.65,7.76 4.32,10.43 2.67,2.67 6.36,4.32 10.43,4.32 2.98,0 5.7,-0.83 7.95,-2.27 2.35,-1.5 4.25,-3.67 5.45,-6.25 2.52,-5.43 4.68,-11.14 6.84,-16.84 4.81,-12.7 9.62,-25.4 18.44,-36.96 5.95,-7.79 16.24,-16.89 26.53,-25.97 4.48,-3.96 8.97,-7.92 13.27,-11.98 2.15,-2.34 5.24,-3.81 8.67,-3.81l35.65 0 0 -113.59c0,-6.5 5.27,-11.76 11.76,-11.76 6.5,0 11.76,5.27 11.76,11.76l0 126.56c0,0.57 0.24,1.1 0.63,1.5 0.39,0.39 0.92,0.63 1.5,0.63l33.21 0c0.57,0 1.1,-0.24 1.5,-0.63l0.02 0.02 0.02 -0.02c0.36,-0.36 0.59,-0.89 0.59,-1.5l0 -187.55c0,-0.6 -0.23,-1.13 -0.59,-1.5l-0.05 -0.05c-0.36,-0.36 -0.89,-0.59 -1.5,-0.59l-33.21 0c-0.57,0 -1.1,0.24 -1.49,0.63 -0.39,0.39 -0.64,0.92 -0.64,1.5l0 7.86c0,6.22 -4.82,11.31 -10.93,11.73l-45.41 6.35c-3.08,0.43 -6.04,-0.38 -8.39,-2.05 -4.52,-2.94 -7.79,-5.15 -11.21,-7.47 -15.97,-10.8 -34.92,-23.62 -42.52,-23.62l-116.65 0c-3.84,0 -7.32,1.56 -9.83,4.07 -2.51,2.51 -4.07,5.99 -4.07,9.83 0,3.84 1.56,7.32 4.07,9.83 2.51,2.51 5.99,4.07 9.83,4.07l26.36 0c6.5,0 11.76,5.27 11.76,11.76 0,6.5 -5.27,11.76 -11.76,11.76l-49.42 0c-3.84,0 -7.32,1.56 -9.83,4.07 -2.51,2.51 -4.07,5.99 -4.07,9.83 0,3.84 1.56,7.32 4.07,9.83 2.51,2.51 5.99,4.07 9.83,4.07l45.95 0c0.72,0 1.43,0.07 2.12,0.19l0.81 0c6.47,0.03 11.69,5.29 11.67,11.76 -0.03,6.47 -5.29,11.69 -11.76,11.67l-19.43 -0.1 -29.53 0c-3.84,0 -7.32,1.56 -9.83,4.07 -2.51,2.51 -4.07,5.99 -4.07,9.83 0,3.84 1.56,7.32 4.07,9.83 2.51,2.51 5.99,4.07 9.83,4.07l48.96 0c6.5,0 11.76,5.27 11.76,11.76 0,6.5 -5.27,11.76 -11.76,11.76l-28.22 0c-3.84,0 -7.32,1.56 -9.83,4.07 -2.51,2.51 -4.07,5.99 -4.07,9.83 0,3.84 1.56,7.32 4.07,9.83 2.51,2.51 5.99,4.07 9.83,4.07l43.74 0zm18.3 23.52l-62.04 0c-10.33,0 -19.69,-4.19 -26.46,-10.96 -6.77,-6.77 -10.96,-16.13 -10.96,-26.46 0,-5.81 1.32,-11.31 3.69,-16.22 -5.11,-1.89 -9.69,-4.87 -13.47,-8.65 -6.77,-6.77 -10.96,-16.13 -10.96,-26.46 0,-9.98 3.91,-19.04 10.27,-25.75 -6.27,-6.69 -10.1,-15.68 -10.1,-25.57 0,-10.33 4.19,-19.69 10.96,-26.46 4.27,-4.27 9.56,-7.51 15.47,-9.32 -2.16,-4.73 -3.37,-10 -3.37,-15.54 0,-10.33 4.19,-19.69 10.96,-26.46 6.77,-6.77 16.13,-10.96 26.46,-10.96l116.65 0c14.77,0 36.96,15.01 55.66,27.67 2.74,1.85 5.41,3.66 7.61,5.14l31.77 -4.44c0.56,-6.13 3.3,-11.65 7.42,-15.77 4.64,-4.64 11.06,-7.53 18.13,-7.53l33.21 0c7.01,0 13.41,2.88 18.08,7.53l0.07 0.07c4.63,4.67 7.5,11.05 7.5,18.05l0 187.55c0,7.02 -2.89,13.43 -7.55,18.1l0.02 0.02c-4.64,4.64 -11.06,7.53 -18.13,7.53l-33.21 0c-7.07,0 -13.48,-2.88 -18.13,-7.53 -2.17,-2.17 -3.96,-4.74 -5.25,-7.57l-33.34 0c-3.42,3.13 -7.21,6.48 -10.99,9.82 -9.37,8.28 -18.74,16.55 -23.4,22.67 -6.74,8.83 -10.94,19.91 -15.13,30.99 -2.34,6.18 -4.68,12.37 -7.48,18.4 -3.08,6.63 -8.03,12.25 -14.18,16.17 -5.98,3.82 -13.03,6.04 -20.54,6.04 -10.57,0 -20.14,-4.29 -27.06,-11.21 -6.93,-6.93 -11.21,-16.5 -11.21,-27.06 0,-0.58 0.03,-1.4 0.1,-2.44 0.03,-0.43 0.08,-0.98 0.16,-1.64 0.02,-0.33 0.05,-0.65 0.1,-0.98l8.69 -60.75z"/>
  </g>
 </g>
</svg>
