<?xml version="1.0" encoding="UTF-8"?>
<!DOCTYPE svg PUBLIC "-//W3C//DTD SVG 1.1//EN" "http://www.w3.org/Graphics/SVG/1.1/DTD/svg11.dtd">
<!-- Creator: CorelDRAW -->
<svg xmlns="http://www.w3.org/2000/svg" xml:space="preserve" width="113.512mm" height="125.041mm" version="1.1" style="shape-rendering:geometricPrecision; text-rendering:geometricPrecision; image-rendering:optimizeQuality; fill-rule:evenodd; clip-rule:evenodd"
viewBox="0 0 1759.41 1938.1"
 xmlns:xlink="http://www.w3.org/1999/xlink"
 xmlns:xodm="http://www.corel.com/coreldraw/odm/2003">
 <defs>
  <style type="text/css">
   <![CDATA[
    .fil0 {fill:rgba(122, 156, 201, 0.15);fill-rule:nonzero}
   ]]>
  </style>
 </defs>
 <g id="Layer_x0020_1">
  <metadata id="CorelCorpID_0Corel-Layer"/>
  <path class="fil0" d="M1203.41 826.1c10.66,0 21.24,0.33 31.75,0.92l0 -311.22 -230.45 -0 0 0.16c-50.23,0 -95.72,-20.37 -128.64,-53.29 -32.92,-32.92 -53.29,-78.41 -53.29,-128.64l0.16 0 -0 -252.74 -594.46 0c-1.18,0.1 -2.38,0.16 -3.59,0.16 -39.61,0 -75.48,16.06 -101.43,42.01 -25.96,25.96 -42.01,61.82 -42.01,101.43l0 1213.91c0,39.61 16.06,75.48 42.01,101.43 25.95,25.96 61.82,42.01 101.43,42.01l459.67 0c-23.97,-62.11 -37.15,-129.58 -37.15,-200.14 0,-44.94 5.34,-88.63 15.41,-130.48l-339.69 0c-22.49,0 -40.72,-18.23 -40.72,-40.72 0,-22.49 18.23,-40.72 40.72,-40.72l366.12 0c18.67,-45.22 43.12,-87.44 72.45,-125.74l-438.56 0c-22.49,0 -40.72,-18.23 -40.72,-40.72 0,-22.49 18.23,-40.72 40.72,-40.72l514.93 0c97.71,-85.25 225.5,-136.91 365.35,-136.91zm-293.52 545.25c-15.28,-16.43 -14.36,-42.14 2.07,-57.42 16.43,-15.28 42.14,-14.36 57.42,2.07l148.83 159.85 303.45 -277.69c16.51,-15.11 42.15,-13.97 57.26,2.55 15.11,16.51 13.97,42.15 -2.55,57.26l-331.09 302.98c-0.57,0.59 -1.15,1.17 -1.76,1.74 -16.43,15.28 -42.14,14.36 -57.42,-2.07l-176.22 -189.27zm-586.76 -528.37c-22.49,0 -40.72,-18.23 -40.72,-40.72 0,-22.49 18.23,-40.72 40.72,-40.72l412.77 0c22.49,0 40.72,18.23 40.72,40.72 0,22.49 -18.23,40.72 -40.72,40.72l-412.77 0zm993.47 -5.33c252.79,52.28 442.81,276.17 442.81,544.46 0,307.07 -248.93,556 -556,556 -204.31,0 -382.85,-110.22 -479.48,-274.42l-499.04 0c-62.09,0 -118.32,-25.17 -159.01,-65.87 -40.7,-40.7 -65.87,-96.92 -65.87,-159.01l0 -1213.91c0,-62.09 25.17,-118.32 65.87,-159.01 40.7,-40.7 96.92,-65.87 159.01,-65.87 1.21,0 2.41,0.06 3.59,0.16l632.93 0c11.42,-0.58 23.02,3.63 31.52,12.57l410.34 430.23c8.2,7.45 13.34,18.19 13.34,30.14l0 364.54zm-133.49 -402.97l-279.05 -292.58 0 191.92 0.16 0c0,27.75 11.25,52.88 29.43,71.06 18.18,18.18 43.31,29.43 71.06,29.43l0 0.16 178.4 0zm-403.03 1162.08c3.65,4.34 6.41,9.45 8.01,15.05 80.92,146.01 236.57,244.86 415.33,244.86 262.09,0 474.56,-212.47 474.56,-474.56 0,-262.09 -212.47,-474.56 -474.56,-474.56 -262.09,0 -474.56,212.47 -474.56,474.56 0,77.26 18.48,150.19 51.23,214.66z"/>
 </g>
</svg>
