<?xml version="1.0" encoding="UTF-8"?>
<!DOCTYPE svg PUBLIC "-//W3C//DTD SVG 1.1//EN" "http://www.w3.org/Graphics/SVG/1.1/DTD/svg11.dtd">
<!-- Creator: CorelDRAW -->
<svg xmlns="http://www.w3.org/2000/svg" xml:space="preserve" width="135.859mm" height="129.274mm" version="1.1" style="shape-rendering:geometricPrecision; text-rendering:geometricPrecision; image-rendering:optimizeQuality; fill-rule:evenodd; clip-rule:evenodd"
viewBox="0 0 1787.02 1700.41"
 xmlns:xlink="http://www.w3.org/1999/xlink"
 xmlns:xodm="http://www.corel.com/coreldraw/odm/2003">
 <defs>
  <style type="text/css">
   <![CDATA[
    .fil0 {fill:rgba(122, 156, 201, 0.15);fill-rule:nonzero}
   ]]>
  </style>
 </defs>
 <g id="Layer_x0020_1">
  <metadata id="CorelCorpID_0Corel-Layer"/>
  <g id="_1987776965248">
   <path class="fil0" d="M75.1 630.57c-16.92,-29.16 -30.25,-60.25 -39.62,-92.94 -10.58,-36.94 -16.14,-75.94 -16.14,-116.56 0,-116.27 47.13,-221.54 123.33,-297.74 76.2,-76.2 181.47,-123.33 297.74,-123.33 116.27,0 221.54,47.13 297.74,123.33 76.2,76.2 123.33,181.47 123.33,297.74 0,116.27 -47.13,221.54 -123.33,297.74 -76.2,76.2 -181.47,123.33 -297.74,123.33 -17.35,0 -35.03,-1.18 -52.93,-3.46 -17.79,-2.27 -35.17,-5.63 -52.05,-10.01 -14.83,-3.84 -23.74,-18.99 -19.9,-33.82 3.84,-14.83 18.99,-23.74 33.82,-19.9 14.79,3.84 29.84,6.76 45.09,8.7 14.51,1.85 29.85,2.8 45.97,2.8 100.9,0 192.25,-40.9 258.37,-107.02 66.12,-66.12 107.02,-157.47 107.02,-258.37 0,-100.9 -40.9,-192.25 -107.02,-258.37 -66.12,-66.12 -157.47,-107.02 -258.37,-107.02 -100.9,0 -192.25,40.9 -258.37,107.02 -66.12,66.12 -107.02,157.47 -107.02,258.37 0,35.47 4.82,69.37 13.97,101.33 9.34,32.61 23.13,63.22 40.86,91.46 5.43,8.06 6.46,18.74 1.77,28.04l-73.31 144.77c-1.47,2.9 -1.89,5.85 -1.54,8.5 0.32,2.42 1.28,4.48 2.61,5.81 1.33,1.33 3.39,2.29 5.81,2.61 2.64,0.35 5.59,-0.07 8.5,-1.54l144.77 -73.31c13.69,-6.91 30.4,-1.4 37.3,12.29 6.91,13.69 1.4,30.4 -12.29,37.3l-144.77 73.31c-13.47,6.82 -27.64,8.71 -40.69,6.98 -14.91,-1.98 -28.43,-8.69 -38,-18.27 -9.58,-9.58 -16.29,-23.1 -18.27,-38 -1.73,-13.04 0.16,-27.22 6.98,-40.69l66.37 -131.08z"/>
   <path class="fil0" d="M570.83 258.83c14.61,-14.61 33.77,-21.92 52.91,-21.92 19.15,0 38.3,7.31 52.91,21.92 14.61,14.61 21.92,33.77 21.92,52.91 0,19.15 -7.31,38.3 -21.92,52.91l-239.7 239.7c-14.61,14.61 -33.77,21.92 -52.91,21.92 -19.15,0 -38.3,-7.31 -52.91,-21.92l-145.39 -145.39c-14.61,-14.61 -21.92,-33.77 -21.92,-52.91 0,-19.15 7.31,-38.3 21.92,-52.91 14.61,-14.61 33.77,-21.92 52.92,-21.92 19.15,0 38.3,7.31 52.91,21.92l92.47 92.47 186.78 -186.78zm52.91 33.76c-4.9,0 -9.81,1.87 -13.55,5.61l-206.47 206.47c-10.87,10.87 -28.5,10.87 -39.37,0l-112.16 -112.16c-3.74,-3.74 -8.64,-5.61 -13.55,-5.61 -4.9,0 -9.81,1.87 -13.55,5.61 -3.74,3.74 -5.61,8.64 -5.61,13.54 0,4.9 1.87,9.81 5.6,13.54l145.39 145.39c3.74,3.74 8.64,5.6 13.55,5.6 4.9,0 9.81,-1.87 13.54,-5.6l239.7 -239.7c3.74,-3.74 5.61,-8.64 5.61,-13.55 0,-4.9 -1.87,-9.81 -5.61,-13.55 -3.74,-3.74 -8.64,-5.61 -13.55,-5.61z"/>
   <path class="fil0" d="M1438.49 241.47c14.61,-14.61 33.77,-21.92 52.91,-21.92 19.15,0 38.3,7.31 52.91,21.92 14.61,14.61 21.92,33.77 21.92,52.91 0,19.15 -7.31,38.3 -21.92,52.91l-83.08 83.08 83.08 83.08c14.61,14.61 21.92,33.77 21.92,52.91 0,19.15 -7.31,38.3 -21.92,52.91 -14.61,14.61 -33.77,21.92 -52.91,21.92 -19.15,0 -38.3,-7.31 -52.91,-21.92l-83.08 -83.08 -83.08 83.08c-14.61,14.61 -33.77,21.92 -52.91,21.92 -19.15,0 -38.3,-7.31 -52.91,-21.92 -14.61,-14.61 -21.92,-33.77 -21.92,-52.91 0,-19.15 7.31,-38.3 21.92,-52.91l83.08 -83.08 -83.08 -83.08c-14.61,-14.61 -21.92,-33.77 -21.92,-52.91 0,-19.15 7.31,-38.3 21.92,-52.91 14.61,-14.61 33.77,-21.92 52.91,-21.92 19.15,0 38.3,7.31 52.91,21.92l83.08 83.08 83.08 -83.07zm52.91 33.76c-4.9,0 -9.81,1.87 -13.55,5.61l-102.76 102.76c-10.87,10.87 -28.5,10.87 -39.37,0l-102.76 -102.76c-3.74,-3.74 -8.64,-5.61 -13.55,-5.61 -4.9,0 -9.81,1.87 -13.55,5.61 -3.74,3.74 -5.61,8.64 -5.61,13.55 0,4.9 1.87,9.81 5.61,13.55l102.76 102.76c10.87,10.87 10.87,28.5 0,39.37l-102.76 102.76c-3.74,3.74 -5.6,8.64 -5.6,13.55 0,4.9 1.87,9.81 5.6,13.55 3.74,3.74 8.64,5.61 13.55,5.61 4.9,0 9.81,-1.87 13.55,-5.61l102.76 -102.76c10.87,-10.87 28.5,-10.87 39.37,0l102.76 102.76c3.74,3.74 8.64,5.61 13.55,5.61 4.9,0 9.81,-1.87 13.55,-5.61 3.74,-3.74 5.61,-8.64 5.61,-13.55 0,-4.9 -1.87,-9.81 -5.61,-13.54l-102.76 -102.76c-10.87,-10.87 -10.87,-28.5 0,-39.37l102.76 -102.76c3.74,-3.74 5.61,-8.64 5.61,-13.54 0,-4.9 -1.87,-9.81 -5.6,-13.54 -3.74,-3.74 -8.64,-5.61 -13.55,-5.61z"/>
   <path class="fil0" d="M1654.42 642.72c-4.67,-9.26 -3.66,-19.9 1.71,-27.95 44.58,-71.1 62.29,-154.24 53.17,-234.99 -8.95,-79.23 -43.9,-156.17 -104.81,-217.08 -71.34,-71.34 -164.86,-107.02 -258.37,-107.02 -93.51,0 -187.03,35.67 -258.37,107.02 -71.34,71.34 -107.02,164.86 -107.02,258.37 0,93.51 35.67,187.03 107.02,258.37 60.8,60.8 137.66,95.68 216.84,104.65 80.8,9.16 164,-8.46 235.08,-52.85 8.05,-5.36 18.67,-6.35 27.92,-1.69l144.77 73.31c2.9,1.47 5.85,1.89 8.5,1.54 2.42,-0.32 4.48,-1.28 5.81,-2.61 1.33,-1.33 2.29,-3.39 2.61,-5.81 0.35,-2.64 -0.07,-5.59 -1.54,-8.5l-73.31 -144.77zm56.51 -11.35l66.39 131.11c6.82,13.47 8.71,27.64 6.98,40.69 -1.98,14.91 -8.69,28.43 -18.27,38 -9.58,9.58 -23.1,16.29 -38,18.27 -13.04,1.73 -27.22,-0.16 -40.69,-6.98l-131.14 -66.4c-79.06,45.5 -169.69,63.27 -257.71,53.29 -91.47,-10.37 -180.13,-50.54 -250.12,-120.53 -82.22,-82.22 -123.33,-189.98 -123.33,-297.74 0,-107.76 41.11,-215.52 123.33,-297.74 82.22,-82.22 189.98,-123.33 297.74,-123.33 107.76,0 215.52,41.11 297.74,123.33 70.11,70.11 110.35,158.84 120.69,250.36 9.95,88.02 -7.92,178.63 -53.62,257.68z"/>
   <path class="fil0" d="M559.93 1158.75l146.85 0c24.46,0 46.61,9.92 62.64,25.95 16.03,16.03 25.95,38.18 25.95,62.64 0,13.75 -3.14,26.78 -8.73,38.39 12.09,4.48 22.95,11.52 31.89,20.47 16.03,16.03 25.95,38.18 25.95,62.64 0,23.62 -9.25,45.08 -24.32,60.96 14.83,15.84 23.91,37.13 23.91,60.53 0,24.46 -9.92,46.61 -25.95,62.64 -10.1,10.1 -22.62,17.77 -36.62,22.07 5.12,11.21 7.98,23.67 7.98,36.79 0,24.46 -9.92,46.61 -25.95,62.64 -16.03,16.03 -38.18,25.95 -62.64,25.95l-276.12 0c-34.95,0 -87.48,-35.54 -131.75,-65.49 -6.49,-4.39 -12.81,-8.67 -18.02,-12.16l-75.21 10.52c-1.34,14.43 -7.83,27.47 -17.61,37.27l0.05 0.05c-10.99,10.99 -26.18,17.82 -42.91,17.82l-78.6 0c-16.73,0 -31.92,-6.83 -42.91,-17.82 -10.99,-10.99 -17.82,-26.18 -17.82,-42.91l0 -443.97c0,-16.73 6.83,-31.92 17.82,-42.91 0.68,-0.68 1.39,-1.32 2.12,-1.92 10.84,-9.87 25.17,-15.9 40.78,-15.9l78.6 0c16.6,0 31.75,6.82 42.8,17.82l0.17 0.17c5.09,5.13 9.28,11.13 12.31,17.76l78.99 0c8.09,-7.41 17.06,-15.33 26.03,-23.25 22.17,-19.59 44.35,-39.18 55.4,-53.65 15.96,-20.91 25.89,-47.13 35.82,-73.35 5.54,-14.64 11.09,-29.28 17.72,-43.56 7.29,-15.7 19.01,-28.99 33.57,-38.29 14.16,-9.04 30.85,-14.29 48.62,-14.29 25.02,0 47.67,10.14 64.06,26.54 16.4,16.39 26.54,39.05 26.54,64.06 0,1.38 -0.08,3.31 -0.24,5.78 -0.06,1.02 -0.19,2.31 -0.37,3.88 -0.04,0.77 -0.12,1.55 -0.23,2.33l-20.58 143.8zm43.31 364.48l152.25 0c9.09,0 17.32,-3.68 23.27,-9.63 5.95,-5.95 9.63,-14.18 9.63,-23.27 0,-9.09 -3.68,-17.32 -9.63,-23.27 -5.95,-5.95 -14.18,-9.63 -23.27,-9.63l-152.25 0c-9.09,0 -17.32,3.68 -23.27,9.63 -5.95,5.95 -9.63,14.18 -9.63,23.27 0,9.09 3.68,17.32 9.63,23.27 5.95,5.95 14.18,9.63 23.27,9.63zm97.66 55.68l-97.66 0c-9.09,0 -17.32,3.68 -23.27,9.63 -5.95,5.95 -9.63,14.18 -9.63,23.27 0,9.09 3.68,17.32 9.63,23.27 5.95,5.95 14.18,9.63 23.27,9.63l97.66 0c9.09,0 17.32,-3.68 23.27,-9.63 5.95,-5.95 9.63,-14.18 9.63,-23.27 0,-9.09 -3.68,-17.32 -9.63,-23.27 -5.95,-5.95 -14.18,-9.63 -23.27,-9.63zm-97.66 -177.18l152.65 0c9.09,0 17.32,-3.68 23.27,-9.63 5.95,-5.95 9.63,-14.18 9.63,-23.27 0,-9.09 -3.68,-17.32 -9.63,-23.27 -5.95,-5.95 -14.18,-9.63 -23.27,-9.63l-152.65 0c-9.09,0 -17.32,3.68 -23.27,9.63 -5.95,5.95 -9.63,14.18 -9.63,23.27 0,9.09 3.68,17.32 9.63,23.27 5.95,5.95 14.18,9.63 23.27,9.63zm0 -121.49l103.54 0c9.09,0 17.32,-3.68 23.27,-9.63 5.95,-5.95 9.63,-14.18 9.63,-23.27 0,-9.09 -3.68,-17.32 -9.63,-23.27 -5.95,-5.95 -14.18,-9.63 -23.27,-9.63l-103.54 0c-9.09,0 -17.32,3.68 -23.27,9.63 -5.95,5.95 -9.63,14.18 -9.63,23.27 0,9.09 3.68,17.32 9.63,23.27 5.95,5.95 14.18,9.63 23.27,9.63zm-403.18 296.9l77.68 -10.87c7.28,-1.01 14.3,0.91 19.86,4.85 10.7,6.96 18.44,12.2 26.54,17.68 37.8,25.57 82.65,55.92 100.65,55.92l96.19 0c-4.07,-10.17 -6.32,-21.28 -6.32,-32.9 0,-23.51 9.17,-44.89 24.12,-60.75 -14.95,-15.86 -24.12,-37.24 -24.12,-60.75 0,-23.51 9.17,-44.89 24.12,-60.75 -14.95,-15.86 -24.12,-37.24 -24.12,-60.75 0,-23.51 9.17,-44.89 24.12,-60.75 -10.12,-10.73 -17.58,-23.99 -21.35,-38.72l-42.68 85.21c-11.01,21.98 -28.5,42.23 -49.99,56.46 -20.2,13.38 -43.99,21.71 -69.49,21.71 -15.38,0 -27.84,-12.47 -27.84,-27.84 0,-15.38 12.47,-27.84 27.84,-27.84 14.01,0 27.33,-4.74 38.82,-12.36 13.44,-8.9 24.3,-21.42 31.07,-34.93l75.83 -151.38 24.59 -171.77 0.09 -1.36 0.02 -2.3c0,-9.65 -3.91,-18.38 -10.22,-24.69 -6.32,-6.32 -15.05,-10.22 -24.69,-10.22 -7.05,0 -13.5,1.97 -18.82,5.37 -5.56,3.55 -10.07,8.69 -12.9,14.8 -5.97,12.85 -11.08,26.36 -16.19,39.86 -11.38,30.07 -22.77,60.14 -43.65,87.49 -14.08,18.45 -38.44,39.97 -62.79,61.48 -10.62,9.38 -21.23,18.76 -31.42,28.36 -5.09,5.55 -12.4,9.03 -20.52,9.03l-84.38 0 0 362.71zm-60.73 -398.46l-78.6 0c-1.14,0 -2.16,0.34 -2.97,0.91l-0.57 0.59c-0.93,0.93 -1.5,2.18 -1.5,3.54l0 443.97c0,1.36 0.58,2.61 1.5,3.54 0.93,0.93 2.18,1.5 3.54,1.5l78.6 0c1.36,0 2.61,-0.58 3.54,-1.5l0.05 0.05 0.05 -0.05c0.86,-0.86 1.39,-2.11 1.39,-3.54l0 -443.97c0,-1.43 -0.53,-2.68 -1.39,-3.54l-0.11 -0.11c-0.86,-0.86 -2.11,-1.39 -3.54,-1.39z"/>
   <path class="fil0" d="M1183.78 1398.34l133.07 0c15.38,0 27.84,12.47 27.84,27.84 0,15.38 -12.47,27.84 -27.84,27.84l-33.6 0 -21.77 152.12 -0.09 1.37 -0.02 2.3c0,9.65 3.91,18.38 10.22,24.69 6.32,6.32 15.05,10.22 24.69,10.22 7.05,0 13.5,-1.97 18.82,-5.37 5.56,-3.55 10.07,-8.69 12.9,-14.8 5.97,-12.85 11.08,-26.36 16.19,-39.86 11.38,-30.07 22.77,-60.14 43.65,-87.49 14.08,-18.45 38.44,-39.97 62.79,-61.48 10.62,-9.38 21.23,-18.76 31.42,-28.36 5.09,-5.55 12.4,-9.03 20.52,-9.03l84.38 0 0 -268.88c0,-15.38 12.47,-27.84 27.84,-27.84 15.38,0 27.84,12.47 27.84,27.84l0 299.58c0,1.36 0.58,2.61 1.5,3.54 0.93,0.93 2.18,1.5 3.54,1.5l78.6 0c1.36,0 2.61,-0.58 3.54,-1.5l0.05 0.05 0.05 -0.05c0.86,-0.86 1.39,-2.11 1.39,-3.54l0 -443.97c0,-1.43 -0.53,-2.68 -1.39,-3.54l-0.11 -0.11c-0.86,-0.86 -2.11,-1.39 -3.54,-1.39l-78.6 0c-1.36,0 -2.61,0.58 -3.54,1.5 -0.93,0.93 -1.5,2.18 -1.5,3.54l0 18.61c0,14.71 -11.42,26.76 -25.88,27.77l-107.49 15.04c-7.28,1.01 -14.3,-0.91 -19.86,-4.85 -10.7,-6.96 -18.44,-12.2 -26.54,-17.68 -37.8,-25.57 -82.65,-55.92 -100.65,-55.92l-276.12 0c-9.09,0 -17.32,3.68 -23.27,9.63 -5.95,5.95 -9.63,14.18 -9.63,23.27 0,9.09 3.68,17.32 9.63,23.27 5.95,5.95 14.18,9.63 23.27,9.63l62.39 0c15.38,0 27.84,12.47 27.84,27.84 0,15.38 -12.47,27.84 -27.84,27.84l-116.98 0c-9.09,0 -17.32,3.68 -23.27,9.63 -5.95,5.95 -9.63,14.18 -9.63,23.27 0,9.09 3.68,17.32 9.63,23.27 5.95,5.95 14.18,9.63 23.27,9.63l108.76 0c1.71,0 3.39,0.16 5.02,0.45l1.92 0.01c15.32,0.06 27.68,12.53 27.62,27.84 -0.06,15.32 -12.53,27.68 -27.84,27.62l-45.99 -0.24 -69.89 0c-9.09,0 -17.32,3.68 -23.27,9.63 -5.95,5.95 -9.63,14.18 -9.63,23.27 0,9.09 3.68,17.32 9.63,23.27 5.95,5.95 14.18,9.63 23.27,9.63l115.9 0c15.38,0 27.84,12.47 27.84,27.84 0,15.38 -12.47,27.84 -27.84,27.84l-66.79 0c-9.09,0 -17.32,3.68 -23.27,9.63 -5.95,5.95 -9.63,14.18 -9.63,23.27 0,9.09 3.68,17.32 9.63,23.27 5.95,5.95 14.18,9.63 23.27,9.63l103.54 0zm43.31 55.68l-146.85 0c-24.46,0 -46.61,-9.92 -62.64,-25.95 -16.03,-16.03 -25.95,-38.18 -25.95,-62.64 0,-13.75 3.14,-26.78 8.73,-38.39 -12.09,-4.48 -22.95,-11.52 -31.89,-20.47 -16.03,-16.03 -25.95,-38.18 -25.95,-62.64 0,-23.62 9.25,-45.08 24.32,-60.96 -14.83,-15.84 -23.91,-37.13 -23.91,-60.53 0,-24.46 9.92,-46.61 25.95,-62.64 10.1,-10.1 22.62,-17.77 36.62,-22.07 -5.12,-11.21 -7.98,-23.67 -7.98,-36.79 0,-24.46 9.92,-46.61 25.95,-62.64 16.03,-16.03 38.18,-25.95 62.64,-25.95l276.12 0c34.95,0 87.48,35.54 131.75,65.49 6.49,4.39 12.81,8.67 18.02,12.16l75.21 -10.52c1.33,-14.51 7.81,-27.57 17.56,-37.33 10.99,-10.99 26.18,-17.82 42.91,-17.82l78.6 0c16.6,0 31.75,6.82 42.8,17.82l0.17 0.17c10.96,11.04 17.75,26.16 17.75,42.73l0 443.97c0,16.63 -6.84,31.8 -17.87,42.85l0.05 0.05c-10.99,10.99 -26.18,17.82 -42.91,17.82l-78.6 0c-16.73,0 -31.92,-6.83 -42.91,-17.82 -5.15,-5.15 -9.38,-11.22 -12.43,-17.93l-78.93 0c-8.09,7.41 -17.06,15.33 -26.03,23.25 -22.18,19.59 -44.35,39.18 -55.4,53.65 -15.96,20.91 -25.89,47.13 -35.82,73.35 -5.54,14.64 -11.09,29.28 -17.72,43.56 -7.29,15.7 -19.01,28.99 -33.57,38.29 -14.16,9.04 -30.85,14.29 -48.62,14.29 -25.01,0 -47.66,-10.14 -64.06,-26.54 -16.4,-16.4 -26.54,-39.05 -26.54,-64.06 0,-1.38 0.08,-3.31 0.24,-5.78 0.06,-1.02 0.19,-2.31 0.37,-3.88 0.04,-0.77 0.12,-1.55 0.23,-2.32l20.58 -143.8z"/>
  </g>
 </g>
</svg>
