<?xml version="1.0" encoding="UTF-8"?>
<!DOCTYPE svg PUBLIC "-//W3C//DTD SVG 1.1//EN" "http://www.w3.org/Graphics/SVG/1.1/DTD/svg11.dtd">
<!-- Creator: CorelDRAW -->
<svg xmlns="http://www.w3.org/2000/svg" xml:space="preserve" width="65.4945mm" height="129.274mm" version="1.1" style="shape-rendering:geometricPrecision; text-rendering:geometricPrecision; image-rendering:optimizeQuality; fill-rule:evenodd; clip-rule:evenodd"
viewBox="0 0 454.75 897.59"
 xmlns:xlink="http://www.w3.org/1999/xlink"
 xmlns:xodm="http://www.corel.com/coreldraw/odm/2003">
 <defs>
  <style type="text/css">
   <![CDATA[
    .fil0 {fill:rgba(122, 156, 201, 0.15);fill-rule:nonzero}
   ]]>
  </style>
 </defs>
 <g id="Layer_x0020_1">
  <metadata id="CorelCorpID_0Corel-Layer"/>
  <g id="_1987838539968">
   <path class="fil0" d="M386.2 324.04c9.36,-14.9 16.64,-31.06 21.57,-48.28 4.83,-16.87 7.37,-34.77 7.37,-53.49 0,-53.26 -21.59,-101.48 -56.49,-136.39 -34.9,-34.9 -83.12,-56.49 -136.39,-56.49 -53.26,0 -101.48,21.59 -136.39,56.49 -34.9,34.9 -56.49,83.12 -56.49,136.39 0,53.26 21.59,101.48 56.49,136.39 34.9,34.9 83.12,56.49 136.39,56.49 8.51,0 16.61,-0.5 24.27,-1.48 8.05,-1.02 15.99,-2.57 23.8,-4.59 7.83,-2.03 15.83,2.67 17.85,10.51 2.03,7.83 -2.67,15.83 -10.51,17.85 -8.91,2.31 -18.08,4.09 -27.47,5.28 -9.45,1.2 -18.78,1.83 -27.94,1.83 -61.38,0 -116.94,-24.88 -157.17,-65.1 -40.22,-40.22 -65.1,-95.79 -65.1,-157.17 0,-61.38 24.88,-116.94 65.1,-157.17 40.22,-40.22 95.79,-65.1 157.17,-65.1 61.38,0 116.94,24.88 157.17,65.1 40.22,40.22 65.1,95.79 65.1,157.17 0,21.44 -2.94,42.03 -8.52,61.53 -4.94,17.26 -11.98,33.67 -20.91,49.06l35.04 69.19c3.6,7.11 4.6,14.59 3.68,21.48 -1.04,7.87 -4.59,15.01 -9.64,20.06 -5.05,5.05 -12.19,8.6 -20.06,9.64 -6.88,0.92 -14.37,-0.08 -21.48,-3.68l-76.42 -38.7c-7.23,-3.65 -10.13,-12.46 -6.49,-19.69 3.65,-7.23 12.46,-10.13 19.69,-6.49l76.42 38.7c1.53,0.78 3.09,1 4.48,0.81 1.28,-0.17 2.37,-0.67 3.07,-1.38 0.7,-0.7 1.21,-1.79 1.38,-3.07 0.19,-1.39 -0.04,-2.95 -0.81,-4.48l-38.7 -76.42c-2.47,-4.91 -1.93,-10.54 0.93,-14.8z"/>
   <path class="fil0" d="M301.32 136.63c7.71,-7.71 17.82,-11.57 27.93,-11.57 10.11,0 20.22,3.86 27.93,11.57 7.71,7.71 11.57,17.82 11.57,27.93 0,10.11 -3.86,20.22 -11.57,27.93l-126.53 126.53c-7.71,7.71 -17.82,11.57 -27.93,11.57 -10.11,0 -20.22,-3.86 -27.93,-11.57l-76.75 -76.75c-7.71,-7.71 -11.57,-17.82 -11.57,-27.93 0,-10.11 3.86,-20.22 11.57,-27.93 7.71,-7.71 17.83,-11.57 27.93,-11.57 10.11,0 20.22,3.86 27.93,11.57l48.81 48.81 98.6 -98.6zm27.93 17.82c-2.59,0 -5.18,0.99 -7.15,2.96l-108.99 108.99c-5.74,5.74 -15.04,5.74 -20.78,0l-59.2 -59.2c-1.97,-1.97 -4.56,-2.96 -7.15,-2.96 -2.59,0 -5.18,0.99 -7.15,2.96 -1.97,1.97 -2.96,4.56 -2.96,7.15 0,2.59 0.99,5.18 2.96,7.15l76.75 76.75c1.97,1.97 4.56,2.96 7.15,2.96 2.59,0 5.18,-0.99 7.15,-2.96l126.53 -126.53c1.97,-1.97 2.96,-4.56 2.96,-7.15 0,-2.59 -0.99,-5.18 -2.96,-7.15 -1.97,-1.97 -4.56,-2.96 -7.15,-2.96z"/>
   <path class="fil0" d="M136.32 611.67l22.86 0 -10.86 -75.91c-0.06,-0.41 -0.1,-0.82 -0.12,-1.23 -0.1,-0.83 -0.16,-1.51 -0.2,-2.05 -0.08,-1.3 -0.13,-2.33 -0.13,-3.05 0,-13.2 5.35,-25.16 14.01,-33.82 8.66,-8.66 20.61,-14.01 33.82,-14.01 9.38,0 18.19,2.77 25.66,7.54 7.68,4.91 13.87,11.92 17.72,20.21 3.5,7.54 6.43,15.27 9.35,23 5.24,13.84 10.48,27.68 18.91,38.72 5.83,7.64 17.54,17.98 29.24,28.32 4.73,4.18 9.47,8.36 13.74,12.27l41.66 0c1.61,-3.54 3.84,-6.75 6.56,-9.47l0.03 0.03c5.84,-5.82 13.84,-9.43 22.62,-9.43l41.49 0c8.75,0 16.73,3.59 22.56,9.37l0.09 0.09c5.8,5.83 9.41,13.83 9.41,22.59l0 234.36c0,8.24 -3.18,15.81 -8.39,21.53 -0.31,0.39 -0.65,0.76 -1.01,1.12 -5.8,5.8 -13.82,9.41 -22.65,9.41l-41.49 0c-8.83,0 -16.85,-3.6 -22.65,-9.41 -5.15,-5.15 -8.57,-12.04 -9.27,-19.7l-39.7 -5.55c-2.75,1.84 -6.09,4.1 -9.51,6.42 -23.37,15.81 -51.1,34.57 -69.55,34.57l-145.75 0c-12.91,0 -24.6,-5.24 -33.06,-13.7 -8.46,-8.46 -13.7,-20.15 -13.7,-33.06 0,-6.93 1.51,-13.5 4.21,-19.42 -7.39,-2.27 -14,-6.32 -19.33,-11.65 -8.46,-8.46 -13.7,-20.15 -13.7,-33.06 0,-12.35 4.79,-23.59 12.62,-31.95 -7.95,-8.38 -12.84,-19.71 -12.84,-32.18 0,-12.91 5.24,-24.6 13.7,-33.06 4.72,-4.72 10.45,-8.44 16.83,-10.8 -2.95,-6.13 -4.61,-13 -4.61,-20.26 0,-12.91 5.24,-24.6 13.7,-33.06 8.46,-8.46 20.15,-13.7 33.06,-13.7l54.66 0zm0 221.79l-51.55 0c-4.8,0 -9.14,1.94 -12.28,5.09 -3.14,3.14 -5.09,7.49 -5.09,12.28 0,4.8 1.94,9.14 5.09,12.28 3.14,3.14 7.49,5.09 12.28,5.09l51.55 0c4.8,0 9.14,-1.94 12.28,-5.09 3.14,-3.14 5.09,-7.49 5.09,-12.28 0,-4.8 -1.94,-9.14 -5.09,-12.28 -3.14,-3.14 -7.49,-5.09 -12.28,-5.09zm-51.55 -29.39l51.55 0c4.8,0 9.14,-1.94 12.28,-5.09 3.14,-3.14 5.09,-7.49 5.09,-12.28 0,-4.8 -1.94,-9.14 -5.09,-12.28 -3.14,-3.14 -7.49,-5.09 -12.28,-5.09l-80.37 0c-4.8,0 -9.14,1.94 -12.28,5.09 -3.14,3.14 -5.09,7.49 -5.09,12.28 0,4.8 1.94,9.14 5.09,12.28 3.14,3.14 7.49,5.09 12.28,5.09l28.82 0zm-28.82 -64.13l80.37 0c4.8,0 9.14,-1.94 12.28,-5.09 3.14,-3.14 5.09,-7.49 5.09,-12.28 0,-4.8 -1.94,-9.14 -5.09,-12.28 -3.14,-3.14 -7.49,-5.09 -12.28,-5.09l-80.58 0c-4.8,0 -9.14,1.94 -12.28,5.09 -3.14,3.14 -5.09,7.49 -5.09,12.28 0,4.8 1.94,9.14 5.09,12.28 3.14,3.14 7.49,5.09 12.28,5.09l0.21 0zm25.71 -64.13l54.66 0c4.8,0 9.14,-1.94 12.28,-5.09 3.14,-3.14 5.09,-7.49 5.09,-12.28 0,-4.8 -1.94,-9.14 -5.09,-12.28 -3.14,-3.14 -7.49,-5.09 -12.28,-5.09l-54.66 0c-4.8,0 -9.14,1.94 -12.28,5.09 -3.14,3.14 -5.09,7.49 -5.09,12.28 0,4.8 1.94,9.14 5.09,12.28 3.14,3.14 7.49,5.09 12.28,5.09zm226.48 150.99l41.01 5.74 0 -191.47 -44.54 0c-4.29,0 -8.15,-1.84 -10.83,-4.77 -5.38,-5.07 -10.98,-10.02 -16.59,-14.97 -12.86,-11.36 -25.71,-22.72 -33.15,-32.45 -11.02,-14.44 -17.03,-30.31 -23.04,-46.18 -2.7,-7.13 -5.4,-14.26 -8.55,-21.04 -1.5,-3.22 -3.88,-5.94 -6.81,-7.81 -2.81,-1.79 -6.21,-2.83 -9.94,-2.83 -5.09,0 -9.7,2.06 -13.04,5.4 -3.33,3.33 -5.4,7.94 -5.4,13.04l0.01 1.21 0.05 0.72 12.98 90.67 40.03 79.91c3.57,7.13 9.31,13.74 16.4,18.44 6.07,4.02 13.1,6.52 20.49,6.52 8.12,0 14.7,6.58 14.7,14.7 0,8.12 -6.58,14.7 -14.7,14.7 -13.46,0 -26.02,-4.4 -36.68,-11.46 -11.34,-7.51 -20.58,-18.2 -26.39,-29.8l-22.53 -44.98c-1.99,7.78 -5.93,14.77 -11.27,20.44 7.89,8.37 12.73,19.66 12.73,32.07 0,12.41 -4.84,23.69 -12.73,32.07 7.89,8.37 12.73,19.66 12.73,32.07 0,12.41 -4.84,23.69 -12.73,32.07 7.89,8.37 12.73,19.66 12.73,32.07 0,6.14 -1.18,12 -3.33,17.37l50.77 0c9.5,0 33.18,-16.02 53.13,-29.52 4.27,-2.89 8.36,-5.66 14.01,-9.33 2.93,-2.08 6.64,-3.09 10.48,-2.56zm114.55 -204.6l-41.49 0c-0.75,0 -1.42,0.28 -1.87,0.74l-0.03 0.03 0.03 0.03c-0.49,0.49 -0.79,1.15 -0.79,1.87l0 234.36c0,0.72 0.3,1.38 0.79,1.87 0.49,0.49 1.15,0.79 1.87,0.79l41.49 0c0.72,0 1.38,-0.3 1.87,-0.79l0.31 -0.3c0.3,-0.42 0.48,-0.97 0.48,-1.57l0 -234.36c0,-0.75 -0.28,-1.41 -0.74,-1.87l-0.06 -0.06c-0.45,-0.45 -1.11,-0.74 -1.87,-0.74z"/>
  </g>
 </g>
</svg>
